<svg width="41" height="41" viewBox="0 0 41 41" fill="none" xmlns="http://www.w3.org/2000/svg">
<rect x="0.597168" y="0.961914" width="40.0378" height="40.0378" rx="16" fill="white"/>
<path d="M27.9159 14.3257C30.275 17.8159 31.4401 21.7526 31.0046 26.2847C31.0028 26.3039 30.9928 26.3215 30.9772 26.3331C29.1906 27.653 27.4597 28.4541 25.753 28.9853C25.7398 28.9894 25.7255 28.9892 25.7124 28.9847C25.6992 28.9802 25.6878 28.9717 25.6797 28.9604C25.2854 28.4084 24.9271 27.8264 24.6133 27.2153C24.5953 27.1793 24.6117 27.136 24.6488 27.1218C25.2178 26.9061 25.7588 26.6476 26.2792 26.3415C26.3202 26.3173 26.3228 26.2582 26.2849 26.2298C26.1745 26.1473 26.0651 26.0606 25.9604 25.9739C25.9408 25.9579 25.9144 25.9547 25.8922 25.9655C22.5136 27.5353 18.8126 27.5353 15.3941 25.9655C15.3719 25.9555 15.3455 25.9589 15.3264 25.9747C15.222 26.0614 15.1123 26.1473 15.0029 26.2298C14.9651 26.2582 14.9682 26.3173 15.0094 26.3415C15.5299 26.6418 16.0709 26.9061 16.6391 27.1228C16.6759 27.137 16.6934 27.1793 16.6751 27.2153C16.368 27.8272 16.0098 28.4092 15.6082 28.9612C15.5907 28.9835 15.562 28.9937 15.5348 28.9853C13.8363 28.4541 12.1053 27.653 10.3188 26.3331C10.3039 26.3215 10.2932 26.3031 10.2916 26.2839C9.92762 22.3637 10.6694 18.3944 13.3775 14.325C13.384 14.3142 13.3939 14.3058 13.4054 14.3008C14.7379 13.6855 16.1654 13.2328 17.6574 12.9743C17.6846 12.97 17.7117 12.9827 17.7258 13.0068C17.9102 13.3352 18.1209 13.7564 18.2635 14.1006C19.8362 13.8589 21.4334 13.8589 23.039 14.1006C23.1816 13.7638 23.385 13.3352 23.5686 13.0068C23.5751 12.9948 23.5852 12.9852 23.5975 12.9794C23.6098 12.9735 23.6236 12.9717 23.637 12.9743C25.1298 13.2336 26.5573 13.6863 27.8887 14.3008C27.9005 14.3058 27.9101 14.3142 27.9159 14.3257ZM19.063 21.7794C19.0795 20.6205 18.2397 19.6615 17.1856 19.6615C16.1401 19.6615 15.3084 20.6121 15.3084 21.7794C15.3084 22.9465 16.1565 23.897 17.1856 23.897C18.2314 23.897 19.063 22.9465 19.063 21.7794ZM26.004 21.7794C26.0204 20.6205 25.1807 19.6615 24.1268 19.6615C23.081 19.6615 22.2494 20.6121 22.2494 21.7794C22.2494 22.9465 23.0975 23.897 24.1268 23.897C25.1807 23.897 26.004 22.9465 26.004 21.7794Z" fill="#5865F2"/>
</svg>
