<svg width="41" height="41" viewBox="0 0 41 41" fill="none" xmlns="http://www.w3.org/2000/svg">
<rect y="0.961914" width="40.0378" height="40.0378" rx="16" fill="white"/>
<path fill-rule="evenodd" clip-rule="evenodd" d="M20.0087 10.1445C13.7858 10.1445 8.74551 15.1603 8.74551 21.3529C8.74551 26.3127 11.9696 30.5018 16.4467 31.9869C17.0099 32.085 17.221 31.7487 17.221 31.4545C17.221 31.1883 17.207 30.3057 17.207 29.367C14.3771 29.8853 13.645 28.6804 13.4197 28.05C13.293 27.7277 12.7439 26.733 12.2653 26.4668C11.871 26.2566 11.3079 25.7382 12.2512 25.7242C13.1381 25.7102 13.7717 26.5368 13.9829 26.8731C14.9966 28.5683 16.6157 28.092 17.2633 27.7978C17.3618 27.0692 17.6575 26.5789 17.9813 26.2986C15.4753 26.0184 12.8566 25.0517 12.8566 20.7645C12.8566 19.5456 13.293 18.5368 14.011 17.7522C13.8984 17.472 13.5042 16.3232 14.1237 14.782C14.1237 14.782 15.067 14.4878 17.221 15.9309C18.1221 15.6787 19.0795 15.5526 20.0368 15.5526C20.9942 15.5526 21.9516 15.6787 22.8526 15.9309C25.0067 14.4738 25.95 14.782 25.95 14.782C26.5695 16.3232 26.1753 17.472 26.0626 17.7522C26.7807 18.5368 27.2171 19.5316 27.2171 20.7645C27.2171 25.0657 24.5843 26.0184 22.0783 26.2986C22.4866 26.6489 22.8386 27.3214 22.8386 28.3722C22.8386 29.8713 22.8245 31.0762 22.8245 31.4545C22.8245 31.7487 23.0357 32.099 23.5988 31.9869C28.0478 30.5018 31.2718 26.2986 31.2718 21.3529C31.2718 15.1603 26.2316 10.1445 20.0087 10.1445Z" fill="#1B1F23"/>
</svg>
