<svg width="41" height="41" viewBox="0 0 41 41" fill="none" xmlns="http://www.w3.org/2000/svg">
<rect x="0.0647583" y="0.961914" width="40.0378" height="40.0378" rx="16" fill="white"/>
<path d="M9.52542 29.8219H13.2347V20.8136L7.93573 16.8394V28.2322C7.93573 29.1118 8.64844 29.8219 9.52542 29.8219Z" fill="#4285F4"/>
<path d="M25.9523 29.8219H29.6616C30.5412 29.8219 31.2513 29.1091 31.2513 28.2322V16.8394L25.9523 20.8136" fill="#34A853"/>
<path d="M25.9523 13.9253V20.8139L31.2513 16.8397V14.7201C31.2513 12.7542 29.0071 11.6334 27.436 12.8125" fill="#FBBC04"/>
<path d="M13.2347 20.814V13.9253L19.5935 18.6944L25.9523 13.9253V20.814L19.5935 25.5831" fill="#EA4335"/>
<path d="M7.93573 14.7201V16.8397L13.2347 20.8139V13.9253L11.751 12.8125C10.1772 11.6334 7.93573 12.7542 7.93573 14.7201Z" fill="#C5221F"/>
</svg>
