<svg width="41" height="41" viewBox="0 0 41 41" fill="none" xmlns="http://www.w3.org/2000/svg">
<rect x="0.532379" y="0.961914" width="40.0378" height="40.0378" rx="16" fill="white"/>
<path d="M9.71518 11.7116C9.71518 10.8466 10.4393 10.1445 11.332 10.1445H29.9753C30.8683 10.1445 31.5921 10.8466 31.5921 11.7116V30.4546C31.5921 31.3198 30.8683 32.0214 29.9753 32.0214H11.332C10.4394 32.0214 9.71518 31.3199 9.71518 30.4549V11.7114V11.7116Z" fill="#006699"/>
<path d="M16.3632 28.4528V18.6038H13.0895V28.4528H16.3635H16.3632ZM14.727 17.2593C15.8684 17.2593 16.579 16.503 16.579 15.5578C16.5576 14.5911 15.8684 13.856 14.7487 13.856C13.6283 13.856 12.8965 14.5911 12.8965 15.5577C12.8965 16.5029 13.6069 17.2592 14.7056 17.2592H14.7268L14.727 17.2593ZM18.1752 28.4528H21.4486V22.9532C21.4486 22.6593 21.47 22.3645 21.5565 22.1546C21.793 21.5662 22.3316 20.9572 23.2362 20.9572C24.4205 20.9572 24.8945 21.8603 24.8945 23.1844V28.4528H28.1678V22.8057C28.1678 19.7806 26.553 18.3729 24.3993 18.3729C22.6335 18.3729 21.858 19.3598 21.4271 20.032H21.4489V18.6041H18.1754C18.2181 19.5281 18.1751 28.4532 18.1751 28.4532L18.1752 28.4528Z" fill="white"/>
</svg>
